<svg width="726" height="823" viewBox="0 0 726 823" fill="none" xmlns="http://www.w3.org/2000/svg">
<path d="M340.192 6.01387C354.102 -2.00466 371.231 -2.00458 385.141 6.01387L702.808 189.14C716.745 197.174 725.333 212.038 725.333 228.125V594.258C725.333 610.346 716.745 625.21 702.808 633.244L385.141 816.369C371.231 824.388 354.102 824.388 340.192 816.369L22.5254 633.244C8.5879 625.21 2.83948e-05 610.346 0 594.258V228.126C0 212.039 8.58803 197.174 22.5254 189.14L340.192 6.01387ZM554.571 190.702C554.584 140.753 500.54 109.636 457.282 134.611L394.789 170.691C374.685 182.298 349.908 182.298 329.8 170.697C308.14 158.202 287.048 146.033 267.67 134.853C224.345 109.858 170.209 141.12 170.193 191.138L170.171 262.867C170.163 286.082 157.768 307.535 137.663 319.143C116.009 331.645 94.9229 343.819 75.5469 355.006C32.2056 380.029 32.2212 442.587 75.5703 467.596L137.558 503.358C157.685 514.97 170.084 536.452 170.076 559.689C170.068 584.634 170.06 608.925 170.053 631.251C170.037 681.297 224.211 712.579 267.553 687.556L329.671 651.692C349.775 640.084 374.552 640.085 394.66 651.686C416.32 664.182 437.412 676.35 456.79 687.529C500.115 712.525 554.25 681.264 554.266 631.245L554.289 559.516C554.297 536.301 566.691 514.848 586.796 503.24C608.45 490.739 629.537 478.564 648.913 467.377C692.254 442.354 692.238 379.797 648.889 354.787L587.027 319.098C566.833 307.447 554.43 285.864 554.483 262.55C554.541 237.482 554.566 213.093 554.571 190.702Z" fill="#FF5C5C"/>
<path d="M349.69 294.733C357.447 290.234 367.02 290.234 374.776 294.733L538.28 389.566C554.89 399.199 554.89 423.184 538.28 432.817L374.776 527.65C367.019 532.149 357.447 532.149 349.69 527.65L186.185 432.817C169.576 423.183 169.576 399.199 186.185 389.566L349.69 294.733ZM380.27 330.176C372.574 316.846 353.333 316.843 345.633 330.171L307.05 396.95C303.474 403.139 303.473 410.766 307.047 416.956L345.574 483.688C353.271 497.019 372.511 497.022 380.212 483.694L418.796 416.915C422.372 410.726 422.372 403.099 418.799 396.909L380.27 330.176Z" fill="#211D1D"/>
</svg>
